HIERARCHY
ROOT Hips
{
	OFFSET 0 0 0
	CHANNELS 6 Xposition Yposition Zposition Yrotation Xrotation Zrotation
	JOINT Spine
	{
		OFFSET -0 8.38078 -2.67137
		CHANNELS 3 Yrotation Xrotation Zrotation
		JOINT Spine1
		{
			OFFSET -0 10.2701 0
			CHANNELS 3 Yrotation Xrotation Zrotation
			JOINT Spine2
			{
				OFFSET -0 10.2701 0
				CHANNELS 3 Yrotation Xrotation Zrotation
				JOINT Spine3
				{
					OFFSET -0 10.2701 0
					CHANNELS 3 Yrotation Xrotation Zrotation
					JOINT Neck
					{
						OFFSET -0 16.9472 3.67137
						CHANNELS 3 Yrotation Xrotation Zrotation
						JOINT Head
						{
							OFFSET -0 10.476 0
							CHANNELS 3 Yrotation Xrotation Zrotation
							End Site
							{
								OFFSET -0 15 0
							}
						}
					}
					JOINT LeftShoulder
					{
						OFFSET 1.74599 4.87741 3.49199
						CHANNELS 3 Yrotation Xrotation Zrotation
						JOINT LeftArm
						{
							OFFSET 19.9293 0 0
							CHANNELS 3 Yrotation Xrotation Zrotation
							JOINT LeftForeArm
							{
								OFFSET 25.2203 0 0
								CHANNELS 3 Yrotation Xrotation Zrotation
								JOINT LeftHand
								{
									OFFSET 22.6882 0 0
									CHANNELS 3 Yrotation Xrotation Zrotation
									End Site
									{
										OFFSET 15 0 0
									}
								}
							}
						}
					}
					JOINT RightShoulder
					{
						OFFSET -1.74599 4.87741 3.49199
						CHANNELS 3 Yrotation Xrotation Zrotation
						JOINT RightArm
						{
							OFFSET -19.9293 0 0
							CHANNELS 3 Yrotation Xrotation Zrotation
							JOINT RightForeArm
							{
								OFFSET -25.2203 0 0
								CHANNELS 3 Yrotation Xrotation Zrotation
								JOINT RightHand
								{
									OFFSET -22.6882 0 0
									CHANNELS 3 Yrotation Xrotation Zrotation
									End Site
									{
										OFFSET -15 0 0
									}
								}
							}
						}
					}
				}
			}
		}
	}
	JOINT LeftUpLeg
	{
		OFFSET 10.476 -3.49199 2
		CHANNELS 3 Yrotation Xrotation Zrotation
		JOINT LeftLeg
		{
			OFFSET -0 -42.329 2.44439
			CHANNELS 3 Yrotation Xrotation Zrotation
			JOINT LeftFoot
			{
				OFFSET -0 -39.8175 -2.44439
				CHANNELS 3 Yrotation Xrotation Zrotation
				JOINT LeftToeBase
				{
					OFFSET -0 -6.74129 15.714
					CHANNELS 3 Yrotation Xrotation Zrotation
					End Site
					{
						OFFSET -0 0 5
					}
				}
			}
		}
	}
	JOINT RightUpLeg
	{
		OFFSET -10.476 -3.49199 2
		CHANNELS 3 Yrotation Xrotation Zrotation
		JOINT RightLeg
		{
			OFFSET -0 -42.329 2.44439
			CHANNELS 3 Yrotation Xrotation Zrotation
			JOINT RightFoot
			{
				OFFSET -0 -39.8175 -2.44439
				CHANNELS 3 Yrotation Xrotation Zrotation
				JOINT RightToeBase
				{
					OFFSET -0 -6.74129 15.714
					CHANNELS 3 Yrotation Xrotation Zrotation
					End Site
					{
						OFFSET -0 0 5
					}
				}
			}
		}
	}
}
MOTION
Frames: 5
Frame Time: 0.00833333
207.023975 94.260675 -325.676392 -4.720558 -3.660151 0.579820 0.368994 1.106908 -0.152792 0.354673 1.137956 -0.209238 0.428253 1.074789 -0.151277 0.431776 1.096201 -0.113310 -3.735571 4.844332 -2.746968 -1.433908 2.935277 0.774763 14.920995 10.202871 -3.218854 -49.753001 -2.945259 -66.313450 -10.866637 5.917009 8.001215 5.092157 -13.041088 -3.986237 -11.643858 9.429277 7.415461 45.502920 -0.011010 67.021634 10.502143 4.290414 -7.375773 -7.790640 -15.793018 5.990775 9.197025 10.905399 2.191371 0.000000 -2.303182 0.000000 9.522828 1.359072 0.269274 0.000000 -11.135914 0.000000 -7.492974 8.675491 -3.456243 0.000000 -0.381301 0.000000 -4.747859 -0.895872 -5.051549 0.000000 -1.419140 0.000000
207.020337 94.261169 -325.674951 -4.709170 -3.661469 0.582035 0.365211 1.102326 -0.158659 0.351191 1.137633 -0.211208 0.420608 1.073962 -0.147812 0.422509 1.096926 -0.102500 -3.706601 4.856338 -2.768384 -1.421423 2.923637 0.763864 14.945964 10.201363 -3.198690 -49.780217 -2.941205 -66.358136 -10.790809 5.944004 8.059730 4.739339 -13.301746 -4.025809 -11.633535 9.432312 7.415298 45.514037 0.008542 67.018887 10.512324 4.265875 -7.380139 -7.803906 -15.764924 6.008901 9.191136 10.904830 2.190980 0.000000 -2.301089 0.000000 9.516966 1.362963 0.270655 0.000000 -11.147635 0.000000 -7.492850 8.678654 -3.456103 0.000000 -0.379241 0.000000 -4.758294 -0.899308 -5.045851 0.000000 -1.422920 0.000000
207.015796 94.260730 -325.673999 -4.708610 -3.661830 0.582321 0.362779 1.098495 -0.158623 0.349138 1.135873 -0.211817 0.425176 1.074872 -0.148843 0.426617 1.100257 -0.101216 -3.688202 4.863376 -2.762982 -1.417833 2.894054 0.714791 14.949437 10.198065 -3.203855 -49.763252 -2.946990 -66.349142 -10.769405 5.945475 8.030819 4.753076 -13.257904 -4.013969 -11.640961 9.422569 7.421956 45.424703 -0.037897 67.003699 10.471551 4.261398 -7.319534 -7.751623 -15.746209 6.048692 9.187790 10.905863 2.193478 0.000000 -2.302106 0.000000 9.521111 1.362284 0.267398 0.000000 -11.138900 0.000000 -7.496769 8.678901 -3.454041 0.000000 -0.376474 0.000000 -4.758888 -0.906367 -5.054763 0.000000 -1.417552 0.000000
207.011987 94.260889 -325.672925 -4.712227 -3.661280 0.583560 0.369054 1.100112 -0.161932 0.354871 1.125995 -0.210819 0.418604 1.071222 -0.143640 0.420629 1.100992 -0.098908 -3.638880 4.842638 -2.771211 -1.398218 2.930734 0.674721 14.956415 10.196614 -3.215239 -49.739610 -2.941997 -66.347889 -10.761802 5.944302 8.001810 4.767999 -13.235946 -3.967644 -11.633289 9.426907 7.428210 45.396384 -0.032476 66.999551 10.477282 4.283513 -7.299985 -7.773413 -15.681332 6.016473 9.186443 10.906110 2.194517 0.000000 -2.299692 0.000000 9.522904 1.359091 0.260559 0.000000 -11.127063 0.000000 -7.491202 8.679577 -3.452766 0.000000 -0.375624 0.000000 -4.755176 -0.908195 -5.044360 0.000000 -1.403653 0.000000
207.007568 94.259296 -325.672681 -4.711970 -3.661313 0.586089 0.361398 1.089732 -0.162211 0.348061 1.132023 -0.212287 0.430295 1.070066 -0.148728 0.431169 1.102917 -0.097594 -3.619648 4.847498 -2.774310 -1.390656 2.930698 0.661243 14.953137 10.198441 -3.214222 -49.716570 -2.954519 -66.341322 -10.745227 5.940112 8.000247 4.756860 -13.244934 -4.013408 -11.639260 9.435602 7.437370 45.476924 0.022801 67.013771 10.488327 4.286119 -7.363479 -7.773498 -15.815032 6.097739 9.190113 10.906417 2.195314 0.000000 -2.296301 0.000000 9.519547 1.351059 0.256906 0.000000 -11.123712 0.000000 -7.492759 8.680262 -3.451687 0.000000 -0.375299 0.000000 -4.757637 -0.913243 -5.056244 0.000000 -1.417439 0.000000
